<svg width="110" height="110" viewBox="0 0 110 110" fill="none" xmlns="http://www.w3.org/2000/svg">
<g filter="url(#filter0_d_124_74)">
<rect x="5" y="3" width="100" height="100" rx="50" fill="white"/>
<rect x="7.5" y="5.5" width="95" height="95" rx="47.5" stroke="#ECF0F1" stroke-width="5"/>
<path d="M25.5469 60.1953C24.707 60.1953 23.9551 60.0618 23.291 59.7949C22.627 59.528 22.0638 59.1602 21.6016 58.6914C21.1458 58.2161 20.7975 57.6693 20.5566 57.0508C20.3158 56.4323 20.1953 55.7715 20.1953 55.0684V54.6973C20.1953 53.9095 20.306 53.1836 20.5273 52.5195C20.7487 51.8555 21.071 51.2793 21.4941 50.791C21.9238 50.2962 22.4512 49.9154 23.0762 49.6484C23.7012 49.375 24.4141 49.2383 25.2148 49.2383C25.9635 49.2383 26.6309 49.362 27.2168 49.6094C27.8027 49.8503 28.2975 50.1986 28.7012 50.6543C29.1048 51.1035 29.4108 51.6471 29.6191 52.2852C29.834 52.9167 29.9414 53.6263 29.9414 54.4141V55.6641H21.4258V53.7012H26.9531V53.4668C26.9531 53.0957 26.8848 52.7702 26.748 52.4902C26.6178 52.2103 26.4225 51.9954 26.1621 51.8457C25.9082 51.6895 25.5859 51.6113 25.1953 51.6113C24.8242 51.6113 24.515 51.6895 24.2676 51.8457C24.0202 52.002 23.8216 52.2233 23.6719 52.5098C23.5286 52.7897 23.4245 53.1185 23.3594 53.4961C23.2943 53.8672 23.2617 54.2676 23.2617 54.6973V55.0684C23.2617 55.4785 23.3171 55.8529 23.4277 56.1914C23.5384 56.5299 23.7012 56.8197 23.916 57.0605C24.1309 57.3014 24.3913 57.4902 24.6973 57.627C25.0033 57.7637 25.3516 57.832 25.7422 57.832C26.224 57.832 26.6829 57.7409 27.1191 57.5586C27.5553 57.3698 27.9329 57.0768 28.252 56.6797L29.6777 58.3105C29.4629 58.623 29.1602 58.9258 28.7695 59.2188C28.3854 59.5052 27.9232 59.7396 27.3828 59.9219C26.8424 60.1042 26.2305 60.1953 25.5469 60.1953ZM34.4824 51.6504V60H31.4355V49.4336H34.2969L34.4824 51.6504ZM34.0918 54.3457L33.3203 54.3652C33.3203 53.623 33.4082 52.9427 33.584 52.3242C33.7663 51.6992 34.0299 51.1556 34.375 50.6934C34.7201 50.2311 35.1465 49.873 35.6543 49.6191C36.1686 49.3652 36.7611 49.2383 37.4316 49.2383C37.9004 49.2383 38.3268 49.3099 38.7109 49.4531C39.0951 49.5898 39.4238 49.8079 39.6973 50.1074C39.9772 50.4004 40.1921 50.7845 40.3418 51.2598C40.4915 51.7285 40.5664 52.2917 40.5664 52.9492V60H37.5195V53.3203C37.5195 52.8516 37.4609 52.4967 37.3438 52.2559C37.2331 52.0085 37.0703 51.8392 36.8555 51.748C36.6406 51.6569 36.3835 51.6113 36.084 51.6113C35.7585 51.6113 35.4688 51.6829 35.2148 51.8262C34.9674 51.9629 34.7591 52.1549 34.5898 52.4023C34.4206 52.6497 34.2936 52.9395 34.209 53.2715C34.1309 53.6035 34.0918 53.9616 34.0918 54.3457ZM40.2539 54.1895L39.2871 54.2676C39.2871 53.5514 39.3717 52.8874 39.541 52.2754C39.7103 51.6634 39.9642 51.1328 40.3027 50.6836C40.6413 50.2279 41.0612 49.873 41.5625 49.6191C42.0703 49.3652 42.6595 49.2383 43.3301 49.2383C43.8249 49.2383 44.2741 49.3099 44.6777 49.4531C45.0879 49.5964 45.4395 49.8275 45.7324 50.1465C46.0319 50.4655 46.263 50.8854 46.4258 51.4062C46.5885 51.9206 46.6699 52.5521 46.6699 53.3008V60H43.6035V53.3008C43.6035 52.8385 43.5449 52.487 43.4277 52.2461C43.3171 52.0052 43.1543 51.8392 42.9395 51.748C42.7311 51.6569 42.4805 51.6113 42.1875 51.6113C41.862 51.6113 41.5788 51.6797 41.3379 51.8164C41.097 51.9466 40.8952 52.1289 40.7324 52.3633C40.5697 52.5911 40.4492 52.8613 40.3711 53.1738C40.293 53.4863 40.2539 53.8249 40.2539 54.1895ZM58.3398 51.6211V54.1504C58.3398 55.1921 58.2227 56.0938 57.9883 56.8555C57.7604 57.6172 57.4284 58.2454 56.9922 58.7402C56.5625 59.235 56.0482 59.6029 55.4492 59.8438C54.8568 60.0781 54.1992 60.1953 53.4766 60.1953C52.8971 60.1953 52.3568 60.1204 51.8555 59.9707C51.3542 59.821 50.9017 59.5898 50.498 59.2773C50.1009 58.9583 49.7591 58.5612 49.4727 58.0859C49.1862 57.6107 48.9648 57.0443 48.8086 56.3867C48.6589 55.7292 48.584 54.9837 48.584 54.1504V51.6211C48.584 50.5664 48.6979 49.6615 48.9258 48.9062C49.1602 48.151 49.4954 47.526 49.9316 47.0312C50.3678 46.5365 50.8822 46.1719 51.4746 45.9375C52.0736 45.7031 52.7344 45.5859 53.457 45.5859C54.0365 45.5859 54.5736 45.6608 55.0684 45.8105C55.5697 45.9603 56.0221 46.1914 56.4258 46.5039C56.8294 46.8164 57.1712 47.2103 57.4512 47.6855C57.7376 48.1608 57.9557 48.7272 58.1055 49.3848C58.2617 50.0358 58.3398 50.7812 58.3398 51.6211ZM55.293 54.5312V51.2207C55.293 50.7324 55.2637 50.3092 55.2051 49.9512C55.153 49.5866 55.0749 49.2773 54.9707 49.0234C54.873 48.7695 54.7493 48.5645 54.5996 48.4082C54.4499 48.252 54.2773 48.138 54.082 48.0664C53.8932 47.9883 53.6849 47.9492 53.457 47.9492C53.1706 47.9492 52.9134 48.0078 52.6855 48.125C52.4577 48.2422 52.2656 48.4277 52.1094 48.6816C51.9531 48.929 51.8327 49.2643 51.748 49.6875C51.6699 50.1042 51.6309 50.6152 51.6309 51.2207V54.5312C51.6309 55.0195 51.6569 55.446 51.709 55.8105C51.7676 56.1751 51.8457 56.4876 51.9434 56.748C52.0475 57.002 52.1745 57.2103 52.3242 57.373C52.474 57.5293 52.6465 57.6432 52.8418 57.7148C53.0371 57.7865 53.2487 57.8223 53.4766 57.8223C53.763 57.8223 54.0169 57.7669 54.2383 57.6562C54.4596 57.5391 54.6484 57.3535 54.8047 57.0996C54.9674 56.8392 55.0879 56.4974 55.166 56.0742C55.2507 55.651 55.293 55.1367 55.293 54.5312ZM63.4375 58.7793L66.2012 49.4336H69.4824L65.2344 61.582C65.1432 61.849 65.0195 62.1354 64.8633 62.4414C64.7135 62.7474 64.5085 63.0404 64.248 63.3203C63.9941 63.6003 63.6686 63.8281 63.2715 64.0039C62.8743 64.1797 62.3861 64.2676 61.8066 64.2676C61.5137 64.2676 61.2858 64.2513 61.123 64.2188C60.9668 64.1927 60.7585 64.1471 60.498 64.082L60.4883 61.8652C60.5729 61.8652 60.6478 61.8652 60.7129 61.8652C60.7845 61.8717 60.8561 61.875 60.9277 61.875C61.2923 61.875 61.5853 61.8359 61.8066 61.7578C62.0345 61.6797 62.2103 61.5625 62.334 61.4062C62.4642 61.2565 62.5684 61.0645 62.6465 60.8301L63.4375 58.7793ZM62.5098 49.4336L64.6973 56.9531L65.0684 60.1855L63.0078 60.293L59.2285 49.4336H62.5098ZM75.3125 60.1953C74.4727 60.1953 73.7207 60.0618 73.0566 59.7949C72.3926 59.528 71.8294 59.1602 71.3672 58.6914C70.9115 58.2161 70.5632 57.6693 70.3223 57.0508C70.0814 56.4323 69.9609 55.7715 69.9609 55.0684V54.6973C69.9609 53.9095 70.0716 53.1836 70.293 52.5195C70.5143 51.8555 70.8366 51.2793 71.2598 50.791C71.6895 50.2962 72.2168 49.9154 72.8418 49.6484C73.4668 49.375 74.1797 49.2383 74.9805 49.2383C75.7292 49.2383 76.3965 49.362 76.9824 49.6094C77.5684 49.8503 78.0632 50.1986 78.4668 50.6543C78.8704 51.1035 79.1764 51.6471 79.3848 52.2852C79.5996 52.9167 79.707 53.6263 79.707 54.4141V55.6641H71.1914V53.7012H76.7188V53.4668C76.7188 53.0957 76.6504 52.7702 76.5137 52.4902C76.3835 52.2103 76.1882 51.9954 75.9277 51.8457C75.6738 51.6895 75.3516 51.6113 74.9609 51.6113C74.5898 51.6113 74.2806 51.6895 74.0332 51.8457C73.7858 52.002 73.5872 52.2233 73.4375 52.5098C73.2943 52.7897 73.1901 53.1185 73.125 53.4961C73.0599 53.8672 73.0273 54.2676 73.0273 54.6973V55.0684C73.0273 55.4785 73.0827 55.8529 73.1934 56.1914C73.304 56.5299 73.4668 56.8197 73.6816 57.0605C73.8965 57.3014 74.1569 57.4902 74.4629 57.627C74.7689 57.7637 75.1172 57.832 75.5078 57.832C75.9896 57.832 76.4486 57.7409 76.8848 57.5586C77.321 57.3698 77.6986 57.0768 78.0176 56.6797L79.4434 58.3105C79.2285 58.623 78.9258 58.9258 78.5352 59.2188C78.151 59.5052 77.6888 59.7396 77.1484 59.9219C76.6081 60.1042 75.9961 60.1953 75.3125 60.1953ZM86.8164 57.0605C86.8164 56.8652 86.7546 56.6927 86.6309 56.543C86.5137 56.3932 86.2988 56.2565 85.9863 56.1328C85.6803 56.0091 85.2474 55.8854 84.6875 55.7617C84.1602 55.651 83.6686 55.5078 83.2129 55.332C82.7572 55.1497 82.36 54.9316 82.0215 54.6777C81.6829 54.4173 81.4193 54.1113 81.2305 53.7598C81.0417 53.4017 80.9473 52.9948 80.9473 52.5391C80.9473 52.0964 81.0417 51.6764 81.2305 51.2793C81.4258 50.8822 81.7057 50.5306 82.0703 50.2246C82.4414 49.9186 82.8906 49.6777 83.418 49.502C83.9518 49.3262 84.5573 49.2383 85.2344 49.2383C86.1654 49.2383 86.9694 49.3848 87.6465 49.6777C88.3236 49.9642 88.8444 50.3678 89.209 50.8887C89.5736 51.403 89.7559 51.9922 89.7559 52.6562H86.709C86.709 52.3828 86.6569 52.1452 86.5527 51.9434C86.4486 51.7415 86.2891 51.5853 86.0742 51.4746C85.8594 51.3574 85.5762 51.2988 85.2246 51.2988C84.9512 51.2988 84.7103 51.3477 84.502 51.4453C84.3001 51.5365 84.1406 51.6634 84.0234 51.8262C83.9128 51.9889 83.8574 52.1777 83.8574 52.3926C83.8574 52.5423 83.89 52.679 83.9551 52.8027C84.0267 52.9199 84.1341 53.0306 84.2773 53.1348C84.4271 53.2324 84.6191 53.3203 84.8535 53.3984C85.0944 53.4766 85.3874 53.5514 85.7324 53.623C86.4681 53.7598 87.1387 53.9518 87.7441 54.1992C88.3561 54.4466 88.8444 54.7884 89.209 55.2246C89.5801 55.6608 89.7656 56.237 89.7656 56.9531C89.7656 57.4219 89.6582 57.8516 89.4434 58.2422C89.235 58.6328 88.9323 58.9746 88.5352 59.2676C88.138 59.5605 87.6628 59.7884 87.1094 59.9512C86.556 60.1139 85.931 60.1953 85.2344 60.1953C84.2383 60.1953 83.3952 60.0163 82.7051 59.6582C82.015 59.3001 81.4941 58.8509 81.1426 58.3105C80.7975 57.7637 80.625 57.2038 80.625 56.6309H83.4863C83.4993 56.9824 83.5872 57.2689 83.75 57.4902C83.9193 57.7116 84.1374 57.8743 84.4043 57.9785C84.6712 58.0762 84.9707 58.125 85.3027 58.125C85.6348 58.125 85.9115 58.0794 86.1328 57.9883C86.3542 57.8971 86.5234 57.7734 86.6406 57.6172C86.7578 57.4544 86.8164 57.2689 86.8164 57.0605Z" fill="#B6B6B6"/>
</g>
<defs>
<filter id="filter0_d_124_74" x="0" y="0" width="110" height="110" filterUnits="userSpaceOnUse" color-interpolation-filters="sRGB">
<feFlood flood-opacity="0" result="BackgroundImageFix"/>
<feColorMatrix in="SourceAlpha" type="matrix" values="0 0 0 0 0 0 0 0 0 0 0 0 0 0 0 0 0 0 127 0" result="hardAlpha"/>
<feOffset dy="2"/>
<feGaussianBlur stdDeviation="2.5"/>
<feComposite in2="hardAlpha" operator="out"/>
<feColorMatrix type="matrix" values="0 0 0 0 0 0 0 0 0 0 0 0 0 0 0 0 0 0 0.25 0"/>
<feBlend mode="normal" in2="BackgroundImageFix" result="effect1_dropShadow_124_74"/>
<feBlend mode="normal" in="SourceGraphic" in2="effect1_dropShadow_124_74" result="shape"/>
</filter>
</defs>
</svg>
