<svg width="50" height="54" viewBox="0 0 50 54" fill="none" xmlns="http://www.w3.org/2000/svg">
<path d="M29.325 49.5C28.8855 50.2577 28.2546 50.8866 27.4956 51.3238C26.7365 51.761 25.8759 51.9911 25 51.9911C24.1241 51.9911 23.2635 51.761 22.5044 51.3238C21.7454 50.8866 21.1145 50.2577 20.675 49.5M40 17C40 13.0218 38.4196 9.20644 35.6066 6.3934C32.7936 3.58035 28.9782 2 25 2C21.0218 2 17.2064 3.58035 14.3934 6.3934C11.5804 9.20644 10 13.0218 10 17C10 34.5 2.5 39.5 2.5 39.5H47.5C47.5 39.5 40 34.5 40 17Z" stroke="white" stroke-width="4" stroke-linecap="round" stroke-linejoin="round"/>
</svg>
