<svg width="46" height="46" viewBox="0 0 46 46" fill="none" xmlns="http://www.w3.org/2000/svg">
<path d="M42 45.5L26.25 29.75C25 30.75 23.5625 31.5417 21.9375 32.125C20.3125 32.7083 18.5833 33 16.75 33C12.2083 33 8.36458 31.4271 5.21875 28.2813C2.07292 25.1354 0.5 21.2917 0.5 16.75C0.5 12.2083 2.07292 8.36458 5.21875 5.21875C8.36458 2.07292 12.2083 0.5 16.75 0.5C21.2917 0.5 25.1354 2.07292 28.2813 5.21875C31.4271 8.36458 33 12.2083 33 16.75C33 18.5833 32.7083 20.3125 32.125 21.9375C31.5417 23.5625 30.75 25 29.75 26.25L45.5 42L42 45.5ZM16.75 28C19.875 28 22.5312 26.9062 24.7188 24.7188C26.9062 22.5312 28 19.875 28 16.75C28 13.625 26.9062 10.9688 24.7188 8.78125C22.5312 6.59375 19.875 5.5 16.75 5.5C13.625 5.5 10.9688 6.59375 8.78125 8.78125C6.59375 10.9688 5.5 13.625 5.5 16.75C5.5 19.875 6.59375 22.5312 8.78125 24.7188C10.9688 26.9062 13.625 28 16.75 28Z" fill="white"/>
</svg>
