<svg width="20" height="21" viewBox="0 0 20 21" fill="none" xmlns="http://www.w3.org/2000/svg">
<path fill-rule="evenodd" clip-rule="evenodd" d="M14.1357 15.4972C12.8152 16.6214 11.1035 17.2998 9.23341 17.2998C5.05446 17.2998 1.66675 13.9121 1.66675 9.73317C1.66675 5.55422 5.05446 2.1665 9.23341 2.1665C13.4124 2.1665 16.8001 5.55422 16.8001 9.73317C16.8001 11.592 16.1298 13.2943 15.0178 14.6115L18.6498 18.2435L17.7659 19.1274L14.1357 15.4972ZM15.5501 9.73317C15.5501 13.2218 12.722 16.0498 9.23341 16.0498C5.74482 16.0498 2.91675 13.2218 2.91675 9.73317C2.91675 6.24457 5.74482 3.4165 9.23341 3.4165C12.722 3.4165 15.5501 6.24457 15.5501 9.73317Z" fill="black"/>
</svg>
